<svg xmlns="http://www.w3.org/2000/svg" viewBox="0 0 180 180" width="180" height="180">
  <defs>
    <linearGradient id="bgGradientApple" x1="0%" y1="0%" x2="100%" y2="100%">
      <stop offset="0%" style="stop-color:#1d4ed8;stop-opacity:1" />
      <stop offset="100%" style="stop-color:#3b82f6;stop-opacity:1" />
    </linearGradient>
    <linearGradient id="docGradientApple" x1="0%" y1="0%" x2="100%" y2="100%">
      <stop offset="0%" style="stop-color:#ffffff;stop-opacity:1" />
      <stop offset="100%" style="stop-color:#f1f5f9;stop-opacity:1" />
    </linearGradient>
  </defs>
  
  <!-- Background with rounded corners for iOS -->
  <rect x="0" y="0" width="180" height="180" rx="40" fill="url(#bgGradientApple)"/>
  
  <!-- Document shape -->
  <rect x="45" y="35" width="68" height="90" rx="6" fill="url(#docGradientApple)" stroke="#e2e8f0" stroke-width="2"/>
  
  <!-- Document lines representing resume content -->
  <line x1="55" y1="50" x2="103" y2="50" stroke="#64748b" stroke-width="3" opacity="0.7"/>
  <line x1="55" y1="60" x2="95" y2="60" stroke="#64748b" stroke-width="3" opacity="0.7"/>
  <line x1="55" y1="70" x2="100" y2="70" stroke="#64748b" stroke-width="3" opacity="0.7"/>
  <line x1="55" y1="80" x2="90" y2="80" stroke="#64748b" stroke-width="3" opacity="0.7"/>
  <line x1="55" y1="90" x2="98" y2="90" stroke="#64748b" stroke-width="3" opacity="0.7"/>
  <line x1="55" y1="100" x2="85" y2="100" stroke="#64748b" stroke-width="3" opacity="0.7"/>
  
  <!-- AI enhancement symbol - sparkle/magic effect -->
  <circle cx="125" cy="55" r="16" fill="#fbbf24" opacity="0.9"/>
  <path d="M125 43 L127.5 50.5 L135 53 L127.5 55.5 L125 63 L122.5 55.5 L115 53 L122.5 50.5 Z" fill="#ffffff"/>
  
  <!-- Small enhancement dots -->
  <circle cx="118" cy="80" r="4" fill="#34d399"/>
  <circle cx="130" cy="90" r="4" fill="#34d399"/>
  <circle cx="122" cy="100" r="4" fill="#34d399"/>
</svg>